<svg width="24" height="24" viewBox="0 0 24 24" fill="none" xmlns="http://www.w3.org/2000/svg">
<path fill-rule="evenodd" clip-rule="evenodd" d="M5 7V17C5 18.1046 5.89543 19 7 19H17C18.1046 19 19 18.1046 19 17.0001V7H21V17.0001C21 19.2092 19.2091 21 17 21H7C4.79086 21 3 19.2092 3 17V7H5Z" fill="black" fill-opacity="0.4"/>
<path fill-rule="evenodd" clip-rule="evenodd" d="M6 2C3.79086 2 2 3.79086 2 6V6.5C2 7.32843 2.67157 8 3.5 8H20.5C21.3284 8 22 7.32843 22 6.5V6C22 3.79086 20.2091 2 18 2H6ZM4 6C4 4.89543 4.89543 4 6 4H18C19.1046 4 20 4.89543 20 6H4ZM10.5 10C9.11929 10 8 11.1193 8 12.5C8 13.8807 9.11929 15 10.5 15H13.5C14.8807 15 16 13.8807 16 12.5C16 11.1193 14.8807 10 13.5 10H10.5ZM10 12.5C10 12.2239 10.2239 12 10.5 12H13.5C13.7761 12 14 12.2239 14 12.5C14 12.7761 13.7761 13 13.5 13H10.5C10.2239 13 10 12.7761 10 12.5Z" fill="black"/>
</svg>
